<svg width="40" height="40" viewBox="0 0 40 40" xmlns="http://www.w3.org/2000/svg">
    <path
        d="M29.1666 13.3332C26.8333 13.3332 24.9999 11.4998 24.9999 9.1665V3.33317C24.9999 2.33317 24.3333 1.6665 23.3333 1.6665H9.99992C6.33325 1.6665 3.33325 4.6665 3.33325 8.33317V31.6665C3.33325 35.3332 6.33325 38.3332 9.99992 38.3332H29.9999C33.6666 38.3332 36.6666 35.3332 36.6666 31.6665V14.9998C36.6666 13.9998 35.9999 13.3332 34.9999 13.3332H29.1666ZM23.3333 28.3332H13.3333C12.3333 28.3332 11.6666 27.6665 11.6666 26.6665C11.6666 25.6665 12.3333 24.9998 13.3333 24.9998H23.3333C24.3333 24.9998 24.9999 25.6665 24.9999 26.6665C24.9999 27.6665 24.3333 28.3332 23.3333 28.3332ZM26.6666 21.6665H13.3333C12.3333 21.6665 11.6666 20.9998 11.6666 19.9998C11.6666 18.9998 12.3333 18.3332 13.3333 18.3332H26.6666C27.6666 18.3332 28.3333 18.9998 28.3333 19.9998C28.3333 20.9998 27.6666 21.6665 26.6666 21.6665Z"
        fill-opacity="0.9" />
</svg>