<svg width="40" height="40" viewBox="0 0 40 40" fill="none" xmlns="http://www.w3.org/2000/svg">
    <path
        d="M29.1667 13.3334C26.8334 13.3334 25 11.5001 25 9.16675V3.33341C25 2.33341 24.3334 1.66675 23.3334 1.66675H10C6.33337 1.66675 3.33337 4.66675 3.33337 8.33342V31.6667C3.33337 35.3334 6.33337 38.3334 10 38.3334H30C33.6667 38.3334 36.6667 35.3334 36.6667 31.6667V15.0001C36.6667 14.0001 36 13.3334 35 13.3334H29.1667ZM23.3334 28.3334H13.3334C12.3334 28.3334 11.6667 27.6667 11.6667 26.6667C11.6667 25.6667 12.3334 25.0001 13.3334 25.0001H23.3334C24.3334 25.0001 25 25.6667 25 26.6667C25 27.6667 24.3334 28.3334 23.3334 28.3334ZM26.6667 21.6667H13.3334C12.3334 21.6667 11.6667 21.0001 11.6667 20.0001C11.6667 19.0001 12.3334 18.3334 13.3334 18.3334H26.6667C27.6667 18.3334 28.3334 19.0001 28.3334 20.0001C28.3334 21.0001 27.6667 21.6667 26.6667 21.6667Z"
        fill="url(#paint0_linear_11_487)" fill-opacity="0.9" />
    <defs>
        <linearGradient id="paint0_linear_11_487" x1="5.23681" y1="20.0001" x2="34.624" y2="20.0001"
            gradientUnits="userSpaceOnUse">
            <stop stop-color="#155097" />
            <stop offset="0.139666" stop-color="#264383" />
            <stop offset="0.316295" stop-color="#3D4071" />
            <stop offset="0.485328" stop-color="#5D456B" />
            <stop offset="0.642965" stop-color="#864A5C" />
            <stop offset="0.829091" stop-color="#AD4E53" />
            <stop offset="1" stop-color="#E15645" />
        </linearGradient>
    </defs>
</svg>