<svg width="40" height="40" viewBox="0 0 40 40" fill="none" xmlns="http://www.w3.org/2000/svg">
    <path
        d="M39.8047 20.782C39.3634 22.0421 38.2701 22.8564 37.0182 22.8564C36.4556 22.8564 35.9996 23.3124 35.9996 23.875V38.5714C35.9996 39.36 35.4023 40 34.6663 40C30.2482 40 26.6667 36.4184 26.6667 32.0004V29.9996C26.6667 26.0608 23.6761 22.8564 20.0003 22.8564C16.3244 22.8564 13.3339 26.0608 13.3339 29.9996V32.0004C13.3339 36.4184 9.75235 40 5.33427 40C4.5983 40 4.001 39.36 4.001 38.5714V23.8763C4.001 23.313 3.54435 22.8564 2.98104 22.8564C1.7291 22.8564 0.635813 22.0435 0.194499 20.7834C-0.246815 19.5234 0.0771711 18.1376 1.02113 17.2547L16.5924 1.45399C18.5043 -0.484664 21.4975 -0.484664 23.4081 1.45399L39.0168 17.2918C39.9207 18.1362 40.246 19.5219 39.8047 20.782Z"
        fill="url(#paint0_linear_11_505)" fill-opacity="0.9" />
    <defs>
        <linearGradient id="paint0_linear_11_505" x1="2.28412" y1="20" x2="37.5487" y2="20"
            gradientUnits="userSpaceOnUse">
            <stop stop-color="#155097" />
            <stop offset="0.139666" stop-color="#264383" />
            <stop offset="0.316295" stop-color="#3D4071" />
            <stop offset="0.485328" stop-color="#5D456B" />
            <stop offset="0.642965" stop-color="#864A5C" />
            <stop offset="0.829091" stop-color="#AD4E53" />
            <stop offset="1" stop-color="#E15645" />
        </linearGradient>
    </defs>
</svg>