<svg width="30" height="39" viewBox="0 0 30 39" fill="none" xmlns="http://www.w3.org/2000/svg">
    <path
        d="M14.9999 17.1429C16.6952 17.1429 18.3524 16.6402 19.7619 15.6983C21.1715 14.7565 22.2701 13.4178 22.9189 11.8516C23.5676 10.2854 23.7374 8.56192 23.4066 6.89923C23.0759 5.23654 22.2595 3.70925 21.0608 2.51052C19.8621 1.31178 18.3348 0.495432 16.6721 0.164701C15.0094 -0.166029 13.286 0.00371384 11.7198 0.652465C10.1535 1.30122 8.81485 2.39984 7.87301 3.8094C6.93117 5.21897 6.42847 6.87616 6.42847 8.57143C6.42847 10.8447 7.33153 13.0249 8.93898 14.6323C10.5464 16.2398 12.7266 17.1429 14.9999 17.1429Z"
        fill="url(#paint0_linear_11_459)" fill-opacity="0.9" />
    <path
        d="M27.8571 38.5716C28.4255 38.5716 28.9705 38.3458 29.3724 37.9439C29.7742 37.5421 30 36.997 30 36.4287C30 32.4505 28.4196 28.6352 25.6066 25.8221C22.7936 23.0091 18.9782 21.4287 15 21.4287C11.0218 21.4287 7.20644 23.0091 4.3934 25.8221C1.58035 28.6352 5.92805e-08 32.4505 0 36.4287C0 36.997 0.225765 37.5421 0.627629 37.9439C1.02949 38.3458 1.57454 38.5716 2.14286 38.5716H27.8571Z"
        fill="url(#paint1_linear_11_459)" fill-opacity="0.9" />
    <defs>
        <linearGradient id="paint0_linear_11_459" x1="7.40738" y1="8.57143" x2="22.5208" y2="8.57143"
            gradientUnits="userSpaceOnUse">
            <stop stop-color="#155097" />
            <stop offset="0.139666" stop-color="#264383" />
            <stop offset="0.316295" stop-color="#3D4071" />
            <stop offset="0.485328" stop-color="#5D456B" />
            <stop offset="0.642965" stop-color="#864A5C" />
            <stop offset="0.829091" stop-color="#AD4E53" />
            <stop offset="1" stop-color="#E15645" />
        </linearGradient>
        <linearGradient id="paint1_linear_11_459" x1="1.71309" y1="30.0001" x2="28.1616" y2="30.0001"
            gradientUnits="userSpaceOnUse">
            <stop stop-color="#155097" />
            <stop offset="0.139666" stop-color="#264383" />
            <stop offset="0.316295" stop-color="#3D4071" />
            <stop offset="0.485328" stop-color="#5D456B" />
            <stop offset="0.642965" stop-color="#864A5C" />
            <stop offset="0.829091" stop-color="#AD4E53" />
            <stop offset="1" stop-color="#E15645" />
        </linearGradient>
    </defs>
</svg>