<svg width="56" height="55" viewBox="0 0 56 55" fill="none" xmlns="http://www.w3.org/2000/svg">
<g id="VK Logo">
<path id="&#226;&#134;&#179; Background" d="M0.5 26.4C0.5 13.9549 0.5 7.73238 4.36619 3.86619C8.23238 0 14.4549 0 26.9 0L29.1 0C41.5451 0 47.7676 0 51.6338 3.86619C55.5 7.73238 55.5 13.9549 55.5 26.4V28.6C55.5 41.0451 55.5 47.2676 51.6338 51.1338C47.7676 55 41.5451 55 29.1 55H26.9C14.4549 55 8.23238 55 4.36619 51.1338C0.5 47.2676 0.5 41.0451 0.5 28.6L0.5 26.4Z" fill="#0077FF"/>
<path id="&#226;&#134;&#179; Foreground" d="M29.7645 39.623C17.2291 39.623 10.0792 31.0292 9.78125 16.7292H16.0604C16.2666 27.2251 20.8957 31.6709 24.5624 32.5875V16.7292H30.4751V25.7813C34.0959 25.3917 37.8996 21.2667 39.183 16.7292H45.0956C44.1102 22.3209 39.9852 26.4459 37.0519 28.1417C39.9852 29.5167 44.6834 33.1146 46.4709 39.623H39.9623C38.5644 35.2688 35.0813 31.9 30.4751 31.4417V39.623H29.7645Z" fill="white"/>
</g>
</svg>
